PathFileType	4	(X/Y/Z)	C:/Users/beibeiliu/ov580/test_trc/User3\sequence.23_training_dense_right.trc
DataRate	CameraRate	NumFrames	NumMarkers	Units	OrigDataRate	OrigDataStartFrame	OrigNumFrames
120	120	24	19	mm	120	110	293
Frame#	Time	ThumbCMC			ThumbMCP			ThumbIP			ThumbTip			IndexMCP			IndexPIP			IndexTip			MiddleMCP			MiddlePIP			MiddleTip			RingMCP			RingPIP			RingTip			PinkyMCP			PinkyPIP			PinkyTip			BackHand1			BackHand2			BackHand3	
		X0	Y0	Z0	X1	Y1	Z1	X2	Y2	Z2	X3	Y3	Z3	X4	Y4	Z4	X5	Y5	Z5	X6	Y6	Z6	X7	Y7	Z7	X8	Y8	Z8	X9	Y9	Z9	X10	Y10	Z10	X11	Y11	Z11	X12	Y12	Z12	X13	Y13	Z13	X14	Y14	Z14	X15	Y15	Z15	X16	Y16	Z16	X17	Y17	Z17	X18	Y18	Z18	
109	0.908333	193.503	17.2582	18.7731	176.904	34.4427	-8.34162	146.106	39.1596	-16.4148	124.598	27.0378	-1.72087	137.979	10.9899	-37.9481	118.135	21.7152	-58.8489	98.9125	31.5514	-73.3396	122.703	-5.48804	-31.7096	97.283	-1.1671	-47.0232	72.5847	12.6537	-63.1972	109.006	-15.7874	-16.4526	87.421	-14.297	-26.0372	62.8208	-6.42442	-37.3638	104.019	-27.4569	9.93618	88.2561	-25.9316	4.64605	63.9983	-28.001	-2.38395	152.849	-33.8449	15.2161	176.134	-37.9028	29.8702	183.331	-14.7432	5.14943	
110	0.916667	201.178	17.0598	15.285	187.745	32.5369	-9.56072	154.174	35.8689	-21.603	132.49	26.1284	-8.82487	151.847	10.4021	-43.7888	135.894	19.2712	-64.1321	115.519	27.3482	-84.8896	127.536	-7.99378	-40.9096	111.773	2.05631	-59.2155	86.1182	9.97695	-75.0427	117.228	-17.4462	-22.3153	99.5948	-14.2896	-35.2866	77.0208	-5.10131	-50.0749	113.4	-25.5579	0.381478	92.0648	-25.0163	-7.21414	72.4714	-23.1886	-17.3365	158.504	-32.6135	10.5151	177.02	-40.6554	30.6643	188.506	-15.0061	7.06721	
111	0.925	206.484	15.1783	11.1157	195.094	31.5042	-13.3362	167.333	36.5744	-28.417	138.665	24.8675	-18.4692	161.881	3.84902	-48.3893	148.865	14.0028	-74.0537	137.699	22.2172	-94.6717	145.757	-9.51189	-47.737	123.191	-2.63551	-70.6758	103.083	6.77558	-90.9967	130.889	-19.1608	-29.8514	113.461	-13.5978	-52.1768	95.7181	-7.14023	-64.8312	121.276	-27.5443	-8.13877	105.11	-24.5734	-20.7817	83.5808	-28.4201	-32.2287	164.526	-34.816	8.30736	182.041	-39.1382	32.0461	195.593	-18.0981	2.59185	
112	0.933333	209.888	12.5546	12.3997	204.459	28.5292	-13.8367	179.194	32.6846	-32.6136	151.474	22.2489	-25.8856	176.945	-0.368643	-55.4175	168.342	7.50622	-81.444	158.822	14.865	-103.837	157.886	-15.8878	-54.1398	145.683	-8.38196	-77.8069	124.246	-0.00450525	-106.022	142.627	-24.2913	-39.1707	130.585	-19.1933	-60.8232	111.983	-14.9646	-81.9155	134.047	-29.2144	-15.9839	117.207	-29.9032	-32.1677	101.302	-33.8901	-46.1413	174.487	-35.0508	-0.705968	184.632	-42.7155	28.407	205.919	-20.063	5.18551	
113	0.941667	216.173	11.6619	11.1405	209.953	23.3891	-17.0731	187.205	26.4235	-36.5432	159.062	15.4574	-33.4141	193.089	-3.14387	-58.8618	185.12	-0.148545	-86.8016	179.228	3.50784	-106.787	173.973	-19.878	-63.9596	162.413	-18.9426	-84.0902	149.271	-10.2815	-114.907	159.692	-29.7659	-49.0402	147.459	-29.1109	-71.0115	131.27	-27.0744	-93.9231	144.307	-37.8197	-24.1937	129.965	-41.8977	-42.2806	118.13	-44.044	-60.5678	182.571	-42.084	-3.89016	192.704	-44.2843	24.9905	211.101	-20.2187	2.90822	
114	0.95	223.235	11.6639	11.7944	219.086	25.1586	-19.56	194.639	19.3883	-44.5578	169.29	9.50235	-41.6076	205.479	-13.007	-60.8869	205.066	-7.65115	-86.1427	197.775	-10.8604	-114.264	186.162	-31.771	-62.3397	177.203	-30.4565	-92.4551	170.028	-25.5172	-117.102	173.998	-37.6657	-52.5465	162.621	-43.1323	-74.2213	152.859	-40.7847	-101.323	156.312	-47.188	-31.9452	148.203	-50.5554	-51.1834	137.205	-58.3221	-65.5455	191.93	-44.1263	-5.30474	200.308	-43.734	27.4435	219.728	-22.0969	5.13993	
115	0.958333	226.717	8.15909	7.94527	224.999	18.1866	-20.552	205.148	12.2309	-43.1669	179.404	-2.98455	-44.6631	219.704	-20.4778	-62.5377	219.374	-20.4412	-89.8547	216.498	-23.841	-114.538	201.36	-43.2503	-65.2158	198.387	-40.4176	-90.5137	190.896	-39.5972	-120.753	189.296	-47.9195	-54.3968	180.836	-54.7374	-78.9076	172.76	-56.9072	-99.5949	169.291	-57.7021	-31.1271	162.409	-64.4112	-52.5109	154.398	-72.6686	-68.0168	201.465	-50.8243	-0.0754214	208.623	-47.9789	23.2751	227.664	-24.6917	6.10523	
116	0.966667	231.136	7.5896	10.5943	231.466	16.1687	-23.8372	214.231	7.43523	-48.9747	190.388	-10.2281	-46.0239	231.723	-29.0482	-60.2283	235.855	-28.4472	-89.7372	236.761	-29.313	-117.028	220.012	-48.9738	-64.0493	215.663	-54.1711	-94.3116	212.947	-52.6207	-126.048	201.42	-57.9859	-50.7887	201.463	-62.8658	-76.9421	194.227	-69.529	-101.773	185.796	-64.4283	-34.3829	181.558	-73.6089	-54.7736	177.742	-83.761	-71.5458	211.826	-53.5524	-0.0347721	214.906	-49.4563	26.7365	235.213	-31.4788	5.22958	
117	0.975	232.86	2.23824	6.91507	234.678	11.6551	-25.7613	220.283	0.0742159	-53.2375	200.108	-17.6271	-50.4107	245.379	-32.1253	-59.6679	252.253	-31.8914	-90.0265	250.404	-37.595	-115.659	237.459	-52.8421	-64.2597	234.67	-60.8236	-92.7435	232.715	-63.7456	-122.409	220.361	-63.9199	-54.6565	220.533	-72.9092	-75.8128	217.789	-78.1674	-100.017	203.325	-71.0244	-35.2238	200.323	-82.1019	-50.1845	200.029	-92.916	-73.5207	224.291	-56.7277	-4.16083	225.016	-51.5378	29.4446	244.894	-28.9691	8.78092	
118	0.983333	233.128	1.99535	6.68329	236.469	12.3082	-25.9208	224.26	-6.8198	-48.4998	205.506	-28.59	-50.7215	259.34	-29.51	-60.4248	264.288	-30.4986	-85.6175	265.962	-36.3978	-111.343	251.14	-54.0359	-60.6566	254.034	-58.1095	-84.6561	253.506	-65.0422	-119.118	235.228	-68.8453	-50.6106	239.172	-75.6615	-73.1024	241.743	-82.7942	-101.425	217.72	-79.1664	-34.6671	219.356	-88.156	-49.031	221.976	-100.254	-73.2372	234.807	-57.0829	-2.1948	227.573	-54.4688	29.6891	249.167	-28.8088	6.05662	
119	0.991667	233.253	5.54548	9.29006	236.488	8.89684	-25.8153	227.837	-6.03296	-50.0474	214.214	-32.4697	-48.9519	265.555	-24.916	-54.1877	273.325	-25.7827	-80.6142	278.229	-29.6541	-106.959	261.929	-49.2287	-55.4476	268.33	-54.5117	-82.1306	270.261	-63.1953	-114.547	251.003	-68.8278	-50.0446	257.292	-76.6018	-73.3044	262.679	-79.8892	-97.1586	230.914	-77.1322	-30.2555	237.656	-92.7532	-51.6039	242.906	-99.4962	-68.6873	243.557	-57.45	2.76759	234.964	-54.2619	30.2658	254.322	-26.9615	9.19051	
120	1	228.32	6.15053	8.23471	232.432	13.2976	-24.6882	229.526	-5.58053	-47.5008	220.056	-31.2771	-49.0182	269.149	-15.5536	-51.0294	277.905	-18.6547	-78.672	284.268	-19.9698	-102.216	273.364	-41.7239	-55.7959	279.867	-45.1642	-81.106	283.998	-52.3694	-109.073	262.99	-57.6332	-45.2422	273.184	-67.4448	-70.4116	278.109	-69.54	-92.4147	245.202	-76.0321	-27.9568	257.832	-84.165	-50.0189	265.743	-92.438	-68.1459	250.338	-50.2234	4.56497	244.366	-48.3768	29.5491	253.498	-17.1568	11.4041	
121	1.00833	221.491	8.59674	10.3939	226.988	16.9841	-24.8635	228.494	-2.71711	-47.9286	225.27	-28.6692	-50.0521	270.9	-6.70934	-53.0605	278.753	-2.31387	-75.8124	286.378	-4.82339	-97.7525	278.184	-27.0416	-54.8788	285.568	-31.9007	-76.3832	294.964	-34.9325	-107.574	272.168	-48.0155	-43.8778	283.555	-53.5944	-65.0214	291.178	-57.5757	-89.9383	259.5	-68.7148	-27.4859	272.061	-74.1556	-44.5578	284.48	-80.0834	-66.3365	258.931	-41.9339	2.69282	247.902	-41.5542	34.6336	253.224	-10.9267	14.1912	
122	1.01667	215.213	8.86823	11.47	214.638	20.9812	-18.1315	225.653	3.07514	-47.0171	227.052	-22.7013	-51.0703	265.549	5.80079	-47.765	273.868	15.1008	-75.4147	283.694	15.6987	-98.0493	277.911	-17.2411	-49.0221	287.288	-13.8785	-74.5616	298.485	-16.3481	-108.206	278.207	-37.1257	-42.515	289.621	-37.9378	-66.9511	297.891	-35.3681	-91.8415	271.014	-56.7296	-28.763	283.265	-57.8447	-44.8195	297.386	-64.0214	-64.9376	262.623	-33.9826	5.35631	250.946	-39.2347	32.7081	249.2	-7.81109	14.2181	
123	1.025	208.191	8.84179	13.4349	206.671	22.6827	-16.1355	218.866	10.4397	-43.2718	228.296	-15.3408	-47.1021	257.303	21.2324	-47.6382	264.235	30.2641	-72.3824	269.553	35.4314	-91.111	274.186	0.356343	-46.8513	283.795	2.67314	-72.5479	294.147	9.34145	-104.706	279.958	-21.1384	-43.5448	290.179	-17.5817	-65.622	300.111	-16.5877	-90.7242	276.718	-39.6854	-31.153	288.045	-41.6157	-44.4201	305.042	-46.7961	-66.2916	265.788	-25.2315	6.06935	252.281	-34.3083	36.1997	241.55	2.30963	20.0434	
124	1.03333	199.543	4.18607	17.0112	198.343	22.7468	-14.0682	209.713	15.3757	-38.3326	223.744	-7.37196	-53.4184	244.353	30.9359	-44.9026	247.556	41.8636	-67.4803	256.505	49.3452	-93.944	267.779	13.5363	-47.5842	274.889	21.7988	-73.6767	282.627	30.3011	-101.603	277.211	-3.70086	-43.9921	285.199	1.64601	-64.5048	294.931	4.01881	-87.4522	279.288	-29.3372	-27.3933	294.55	-26.5227	-47.2982	309.157	-24.4103	-62.4247	263.56	-15.8503	7.54081	253.019	-24.7137	35.9316	234.057	4.91216	19.5912	
125	1.04167	196.113	-1.31827	16.001	188.719	18.3248	-7.61606	200.434	16.9483	-38.1933	217.187	-1.92812	-48.6959	231.941	36.6865	-45.668	233.171	47.6629	-67.7632	235.691	57.8643	-90.5836	255.844	27.0672	-49.56	263.906	31.4562	-69.881	271.979	42.8379	-101.204	271.209	5.82118	-42.6665	279.985	14.08	-62.1971	286.636	23.1466	-87.2746	280.636	-15.4339	-29.6351	292.367	-10.4436	-46.3566	304.058	-4.10455	-61.0467	257.028	-6.09319	5.67694	248.167	-16.5663	35.3511	225.678	8.3946	18.8892	
126	1.05	190.594	-5.33454	18.8402	180.463	15.2982	-7.25649	190.429	15.3888	-34.7333	210.947	0.745558	-49.8943	219.49	35.3368	-42.1183	217.574	48.9237	-64.9047	220.803	59.9553	-91.7897	247.881	28.8828	-47.0432	249.267	41.9891	-73.611	258.257	50.4842	-103.66	260.408	15.8293	-42.7322	271.991	24.4494	-64.4983	275.242	32.9452	-85.0626	270.611	-6.67168	-28.4559	282.899	0.764843	-42.0301	296.627	9.32453	-58.81	255.58	0.183943	6.90689	248.347	-13.3605	33.0955	219.836	8.43178	17.655	
127	1.05833	186.555	-10.6998	17.343	173.07	6.56019	-5.45532	181.54	10.1262	-36.2298	200.449	-2.90005	-49.0832	206.713	31.2585	-43.8753	208.141	44.4075	-70.2528	210.03	53.056	-93.3786	237.938	30.6953	-50.0844	239.938	40.0276	-74.6754	245.064	48.1833	-103.627	255.677	17.9643	-43.7725	259.634	27.1349	-63.0106	268.015	36.4252	-88.2603	267.86	-3.00071	-27.1412	280.965	5.49404	-43.0613	289.762	17.5223	-60.3598	245.753	4.40672	5.83664	246.111	-9.42492	34.3363	213.806	9.21189	17.0553	
128	1.06667	180.335	-15.0982	17.319	169.487	-2.46422	-8.20866	173.677	-2.62509	-36.6824	194.87	-12.268	-52.4343	201.617	21.736	-49.8657	193.586	32.6514	-75.3634	194.177	39.559	-100.97	224.814	24.1074	-52.3521	230.245	31.6653	-80.3701	231.93	38.5967	-111.781	243.135	14.1631	-45.3984	252.349	24.0353	-69.1847	258.175	28.7699	-91.591	264.004	-0.457612	-29.721	273.304	7.18942	-47.8047	284.154	16.063	-64.1264	240.873	2.28331	2.7737	235.67	-8.87444	35.1635	208.115	2.11807	17.0419	
129	1.075	171.456	-19.5568	18.6145	159.998	-12.2565	-8.25988	168.671	-14.6639	-39.1724	190.506	-25.3081	-57.109	190.893	9.87085	-54.9624	189.093	14.5837	-77.9522	187.065	18.5703	-104.263	217.843	10.4144	-55.4329	218.911	17.0109	-86.1849	222.504	18.8298	-119.275	236.032	5.34817	-50.9299	242.886	11.1668	-73.9311	247.57	13.6959	-100.554	258.189	-8.53226	-32.1134	263.707	-2.15657	-47.763	272.298	3.22744	-67.5961	233.856	-1.50142	-1.18574	233.063	-5.54415	31.6113	200.829	-0.853898	14.5485	
130	1.08333	168.874	-22.6833	15.0626	155.471	-17.2332	-12.5371	160.91	-23.9825	-42.6748	181.692	-37.8795	-56.7318	187.793	-3.15256	-61.6747	180.167	-1.64234	-83.4496	180.47	-2.08541	-109.845	211.385	-2.10858	-64.2861	215.569	-2.76002	-90.8494	213.988	-4.18775	-124.038	230.316	-9.35244	-52.719	236.992	-7.27681	-73.8317	243.186	-7.96862	-104.201	246.541	-20.8052	-32.1091	262.292	-16.8446	-53.4279	272.127	-14.8068	-72.8093	226.358	-6.79833	-2.24452	223.426	-8.69574	30.4298	193.017	-2.14116	9.78627	
131	1.09167	163.897	-24.9481	17.6579	148.578	-21.5277	-15.1388	158.97	-32.1265	-42.1901	177.333	-47.9827	-51.7772	181.056	-14.9835	-60.4631	173.106	-16.2944	-84.996	176.39	-18.9481	-110.95	210.52	-16.5379	-66.2088	209.322	-19.1848	-93.472	209.861	-22.7129	-121.623	227.067	-22.7908	-54.5106	231.051	-22.7146	-78.4689	236.026	-25.0027	-106.056	241.205	-31.1072	-36.0795	254.167	-31.5376	-50.8062	264.889	-29.0017	-74.189	219.721	-12.3528	-4.58322	223.558	-13.0685	27.6269	190.288	-7.98312	6.76793	
132	1.1	159.328	-27.9385	16.4328	142.127	-27.5976	-8.81909	150.053	-40.3679	-41.2093	168.894	-55.8932	-49.4501	170.751	-23.2584	-56.9831	166.856	-24.9914	-82.9895	162.768	-30.6984	-109.069	201.732	-25.7634	-60.8234	201.695	-29.7139	-93.126	205.464	-34.8038	-122.774	220.008	-32.2818	-51.6053	223.773	-32.9049	-76.9183	229.686	-38.3991	-105.1	236.198	-39.302	-33.614	246.99	-41.1759	-54.5834	258.251	-40.7875	-71.9307	213.889	-19.2783	-2.47564	217.403	-14.057	22.9967	185.518	-11.4845	4.61153	
